<mxfile host="app.diagrams.net" modified="2024-03-02T17:07:32.107Z" agent="Mozilla/5.0 (Macintosh; Intel Mac OS X 10_15_7) AppleWebKit/605.1.15 (KHTML, like Gecko) Version/17.3 Safari/605.1.15" etag="1LSa0kdYojTBMGjaFgbA" version="24.0.1" type="device">
  <diagram name="Page-1" id="kS6lkXnEapIBtITmmY0S">
    <mxGraphModel dx="1363" dy="924" grid="0" gridSize="10" guides="1" tooltips="1" connect="1" arrows="1" fold="1" page="1" pageScale="1" pageWidth="1000" pageHeight="1000" background="none" math="0" shadow="0">
      <root>
        <mxCell id="0" />
        <mxCell id="1" parent="0" />
        <mxCell id="mM-_cyj1IeP0TL1Ck-X1-1" value="" style="ellipse;whiteSpace=wrap;html=1;aspect=fixed;strokeWidth=6;fillColor=none;" vertex="1" parent="1">
          <mxGeometry x="304" y="446" width="94" height="94" as="geometry" />
        </mxCell>
        <mxCell id="mM-_cyj1IeP0TL1Ck-X1-2" value="" style="ellipse;whiteSpace=wrap;html=1;aspect=fixed;strokeWidth=6;fillColor=none;" vertex="1" parent="1">
          <mxGeometry x="450" y="275" width="90" height="90" as="geometry" />
        </mxCell>
        <mxCell id="mM-_cyj1IeP0TL1Ck-X1-3" value="" style="ellipse;whiteSpace=wrap;html=1;aspect=fixed;strokeWidth=6;fillColor=none;" vertex="1" parent="1">
          <mxGeometry x="596" y="391" width="91" height="91" as="geometry" />
        </mxCell>
        <mxCell id="mM-_cyj1IeP0TL1Ck-X1-4" value="" style="endArrow=none;html=1;rounded=0;exitX=0.5;exitY=1;exitDx=0;exitDy=0;strokeWidth=3;" edge="1" parent="1" source="mM-_cyj1IeP0TL1Ck-X1-2" target="mM-_cyj1IeP0TL1Ck-X1-5">
          <mxGeometry width="50" height="50" relative="1" as="geometry">
            <mxPoint x="482" y="547" as="sourcePoint" />
            <mxPoint x="532" y="497" as="targetPoint" />
          </mxGeometry>
        </mxCell>
        <mxCell id="mM-_cyj1IeP0TL1Ck-X1-5" value="" style="ellipse;whiteSpace=wrap;html=1;aspect=fixed;strokeWidth=6;fillColor=none;" vertex="1" parent="1">
          <mxGeometry x="445" y="625" width="110" height="110" as="geometry" />
        </mxCell>
        <mxCell id="mM-_cyj1IeP0TL1Ck-X1-6" value="" style="endArrow=none;html=1;rounded=0;strokeWidth=3;" edge="1" parent="1" source="mM-_cyj1IeP0TL1Ck-X1-1" target="mM-_cyj1IeP0TL1Ck-X1-5">
          <mxGeometry width="50" height="50" relative="1" as="geometry">
            <mxPoint x="482" y="547" as="sourcePoint" />
            <mxPoint x="532" y="497" as="targetPoint" />
          </mxGeometry>
        </mxCell>
        <mxCell id="mM-_cyj1IeP0TL1Ck-X1-7" value="" style="endArrow=none;html=1;rounded=0;strokeWidth=3;" edge="1" parent="1" source="mM-_cyj1IeP0TL1Ck-X1-5" target="mM-_cyj1IeP0TL1Ck-X1-3">
          <mxGeometry width="50" height="50" relative="1" as="geometry">
            <mxPoint x="482" y="547" as="sourcePoint" />
            <mxPoint x="532" y="497" as="targetPoint" />
          </mxGeometry>
        </mxCell>
      </root>
    </mxGraphModel>
  </diagram>
</mxfile>
